<mxfile host="app.diagrams.net" modified="2021-10-19T11:32:58.709Z" agent="5.0 (Windows NT 10.0; Win64; x64) AppleWebKit/537.36 (KHTML, like Gecko) Chrome/94.0.4606.81 Safari/537.36" etag="oMrrw2Un2myh1FOguc7W" version="15.5.5" type="github">
  <diagram id="2pEouSZ9wKq7gcdtCTwb" name="Page-1">
    <mxGraphModel dx="1422" dy="800" grid="1" gridSize="10" guides="1" tooltips="1" connect="1" arrows="1" fold="1" page="1" pageScale="1" pageWidth="827" pageHeight="1169" math="0" shadow="0">
      <root>
        <mxCell id="0" />
        <mxCell id="1" parent="0" />
        <mxCell id="9st3D3L7WboSmYXunYGg-1" value="START" style="ellipse;whiteSpace=wrap;html=1;" parent="1" vertex="1">
          <mxGeometry x="365" y="25" width="120" height="80" as="geometry" />
        </mxCell>
        <mxCell id="9st3D3L7WboSmYXunYGg-2" value="Initialise Ports&lt;br&gt;Port A1; A2; A3 &amp;amp; B0 as Inputs&lt;br&gt;Port B1 to B7 as Outputs" style="rounded=0;whiteSpace=wrap;html=1;" parent="1" vertex="1">
          <mxGeometry x="337" y="155" width="176" height="80" as="geometry" />
        </mxCell>
        <mxCell id="9st3D3L7WboSmYXunYGg-4" value="B0" style="rhombus;whiteSpace=wrap;html=1;" parent="1" vertex="1">
          <mxGeometry x="385" y="285" width="80" height="80" as="geometry" />
        </mxCell>
        <mxCell id="9st3D3L7WboSmYXunYGg-5" value="Read Port A" style="shape=parallelogram;perimeter=parallelogramPerimeter;whiteSpace=wrap;html=1;fixedSize=1;" parent="1" vertex="1">
          <mxGeometry x="365" y="525" width="120" height="60" as="geometry" />
        </mxCell>
        <mxCell id="9st3D3L7WboSmYXunYGg-6" value="A3" style="rhombus;whiteSpace=wrap;html=1;" parent="1" vertex="1">
          <mxGeometry x="551" y="685" width="80" height="80" as="geometry" />
        </mxCell>
        <mxCell id="9st3D3L7WboSmYXunYGg-7" value="A2" style="rhombus;whiteSpace=wrap;html=1;" parent="1" vertex="1">
          <mxGeometry x="385" y="685" width="80" height="80" as="geometry" />
        </mxCell>
        <mxCell id="9st3D3L7WboSmYXunYGg-8" value="A1" style="rhombus;whiteSpace=wrap;html=1;" parent="1" vertex="1">
          <mxGeometry x="211" y="685" width="80" height="80" as="geometry" />
        </mxCell>
        <mxCell id="9st3D3L7WboSmYXunYGg-9" value="Write 0X78&lt;br&gt;to Port B" style="shape=parallelogram;perimeter=parallelogramPerimeter;whiteSpace=wrap;html=1;fixedSize=1;" parent="1" vertex="1">
          <mxGeometry x="707" y="955" width="120" height="60" as="geometry" />
        </mxCell>
        <mxCell id="9st3D3L7WboSmYXunYGg-10" value="Write 0X19&lt;br&gt;to Port B" style="shape=parallelogram;perimeter=parallelogramPerimeter;whiteSpace=wrap;html=1;fixedSize=1;" parent="1" vertex="1">
          <mxGeometry x="592" y="955" width="120" height="60" as="geometry" />
        </mxCell>
        <mxCell id="9st3D3L7WboSmYXunYGg-11" value="Write 0X02&lt;br&gt;to Port B" style="shape=parallelogram;perimeter=parallelogramPerimeter;whiteSpace=wrap;html=1;fixedSize=1;" parent="1" vertex="1">
          <mxGeometry x="475" y="955" width="120" height="60" as="geometry" />
        </mxCell>
        <mxCell id="9st3D3L7WboSmYXunYGg-12" value="Write 0X24&lt;br&gt;to Port B" style="shape=parallelogram;perimeter=parallelogramPerimeter;whiteSpace=wrap;html=1;fixedSize=1;" parent="1" vertex="1">
          <mxGeometry x="359" y="955" width="120" height="60" as="geometry" />
        </mxCell>
        <mxCell id="9st3D3L7WboSmYXunYGg-13" value="Write 0X12&lt;br&gt;to Port B" style="shape=parallelogram;perimeter=parallelogramPerimeter;whiteSpace=wrap;html=1;fixedSize=1;" parent="1" vertex="1">
          <mxGeometry x="245" y="955" width="120" height="60" as="geometry" />
        </mxCell>
        <mxCell id="9st3D3L7WboSmYXunYGg-14" value="Write 0X30&lt;br&gt;to Port B" style="shape=parallelogram;perimeter=parallelogramPerimeter;whiteSpace=wrap;html=1;fixedSize=1;" parent="1" vertex="1">
          <mxGeometry x="135" y="955" width="120" height="60" as="geometry" />
        </mxCell>
        <mxCell id="9st3D3L7WboSmYXunYGg-15" value="Write 0X79&lt;br&gt;to Port B" style="shape=parallelogram;perimeter=parallelogramPerimeter;whiteSpace=wrap;html=1;fixedSize=1;" parent="1" vertex="1">
          <mxGeometry x="25" y="955" width="120" height="60" as="geometry" />
        </mxCell>
        <mxCell id="9st3D3L7WboSmYXunYGg-16" value="END" style="ellipse;whiteSpace=wrap;html=1;" parent="1" vertex="1">
          <mxGeometry x="365" y="1065" width="120" height="80" as="geometry" />
        </mxCell>
        <mxCell id="9st3D3L7WboSmYXunYGg-17" value="Write 0X40&lt;br&gt;to Port B" style="shape=parallelogram;perimeter=parallelogramPerimeter;whiteSpace=wrap;html=1;fixedSize=1;" parent="1" vertex="1">
          <mxGeometry x="365" y="415" width="120" height="60" as="geometry" />
        </mxCell>
        <mxCell id="9st3D3L7WboSmYXunYGg-18" value="" style="endArrow=classic;html=1;rounded=0;entryX=0.5;entryY=0;entryDx=0;entryDy=0;exitX=0.5;exitY=1;exitDx=0;exitDy=0;" parent="1" source="9st3D3L7WboSmYXunYGg-1" target="9st3D3L7WboSmYXunYGg-2" edge="1">
          <mxGeometry width="50" height="50" relative="1" as="geometry">
            <mxPoint x="425" y="115" as="sourcePoint" />
            <mxPoint x="513" y="195" as="targetPoint" />
          </mxGeometry>
        </mxCell>
        <mxCell id="9st3D3L7WboSmYXunYGg-19" value="" style="endArrow=classic;html=1;rounded=0;entryX=0.5;entryY=0;entryDx=0;entryDy=0;exitX=0.5;exitY=1;exitDx=0;exitDy=0;" parent="1" edge="1">
          <mxGeometry width="50" height="50" relative="1" as="geometry">
            <mxPoint x="425" y="235" as="sourcePoint" />
            <mxPoint x="425" y="285" as="targetPoint" />
          </mxGeometry>
        </mxCell>
        <mxCell id="9st3D3L7WboSmYXunYGg-20" value="" style="endArrow=classic;html=1;rounded=0;entryX=0.5;entryY=0;entryDx=0;entryDy=0;exitX=0.5;exitY=1;exitDx=0;exitDy=0;" parent="1" edge="1">
          <mxGeometry width="50" height="50" relative="1" as="geometry">
            <mxPoint x="424.67" y="365" as="sourcePoint" />
            <mxPoint x="424.67" y="415" as="targetPoint" />
          </mxGeometry>
        </mxCell>
        <mxCell id="9st3D3L7WboSmYXunYGg-21" value="" style="endArrow=classic;html=1;rounded=0;entryX=0.5;entryY=0;entryDx=0;entryDy=0;exitX=0.5;exitY=1;exitDx=0;exitDy=0;" parent="1" edge="1">
          <mxGeometry width="50" height="50" relative="1" as="geometry">
            <mxPoint x="424" y="475" as="sourcePoint" />
            <mxPoint x="424" y="525" as="targetPoint" />
          </mxGeometry>
        </mxCell>
        <mxCell id="9st3D3L7WboSmYXunYGg-22" value="" style="endArrow=classic;html=1;rounded=0;entryX=0.5;entryY=0;entryDx=0;entryDy=0;exitX=0.5;exitY=1;exitDx=0;exitDy=0;" parent="1" edge="1">
          <mxGeometry width="50" height="50" relative="1" as="geometry">
            <mxPoint x="250.77000000000004" y="635" as="sourcePoint" />
            <mxPoint x="250.77000000000004" y="685" as="targetPoint" />
          </mxGeometry>
        </mxCell>
        <mxCell id="9st3D3L7WboSmYXunYGg-23" value="" style="endArrow=classic;html=1;rounded=0;entryX=0.5;entryY=0;entryDx=0;entryDy=0;exitX=0.5;exitY=1;exitDx=0;exitDy=0;" parent="1" edge="1">
          <mxGeometry width="50" height="50" relative="1" as="geometry">
            <mxPoint x="590.77" y="635" as="sourcePoint" />
            <mxPoint x="590.77" y="685" as="targetPoint" />
          </mxGeometry>
        </mxCell>
        <mxCell id="9st3D3L7WboSmYXunYGg-24" value="" style="endArrow=classic;html=1;rounded=0;entryX=0.5;entryY=0;entryDx=0;entryDy=0;exitX=0.5;exitY=1;exitDx=0;exitDy=0;" parent="1" edge="1">
          <mxGeometry width="50" height="50" relative="1" as="geometry">
            <mxPoint x="424.67" y="635" as="sourcePoint" />
            <mxPoint x="424.67" y="685" as="targetPoint" />
          </mxGeometry>
        </mxCell>
        <mxCell id="9st3D3L7WboSmYXunYGg-26" value="" style="endArrow=none;html=1;rounded=0;" parent="1" edge="1">
          <mxGeometry width="50" height="50" relative="1" as="geometry">
            <mxPoint x="424.67" y="635" as="sourcePoint" />
            <mxPoint x="424.67" y="585" as="targetPoint" />
          </mxGeometry>
        </mxCell>
        <mxCell id="9st3D3L7WboSmYXunYGg-27" value="" style="endArrow=none;html=1;rounded=0;" parent="1" edge="1">
          <mxGeometry width="50" height="50" relative="1" as="geometry">
            <mxPoint x="251" y="635" as="sourcePoint" />
            <mxPoint x="591" y="635" as="targetPoint" />
          </mxGeometry>
        </mxCell>
        <mxCell id="9st3D3L7WboSmYXunYGg-28" value="" style="endArrow=none;html=1;rounded=0;exitX=1;exitY=0.5;exitDx=0;exitDy=0;" parent="1" source="9st3D3L7WboSmYXunYGg-4" edge="1">
          <mxGeometry width="50" height="50" relative="1" as="geometry">
            <mxPoint x="411" y="445" as="sourcePoint" />
            <mxPoint x="491" y="325" as="targetPoint" />
          </mxGeometry>
        </mxCell>
        <mxCell id="9st3D3L7WboSmYXunYGg-29" value="" style="endArrow=none;html=1;rounded=0;" parent="1" edge="1">
          <mxGeometry width="50" height="50" relative="1" as="geometry">
            <mxPoint x="491" y="265" as="sourcePoint" />
            <mxPoint x="491" y="325" as="targetPoint" />
          </mxGeometry>
        </mxCell>
        <mxCell id="9st3D3L7WboSmYXunYGg-30" value="" style="endArrow=classic;html=1;rounded=0;" parent="1" edge="1">
          <mxGeometry width="50" height="50" relative="1" as="geometry">
            <mxPoint x="491" y="265" as="sourcePoint" />
            <mxPoint x="425" y="265" as="targetPoint" />
          </mxGeometry>
        </mxCell>
        <mxCell id="9st3D3L7WboSmYXunYGg-31" value="" style="endArrow=none;html=1;rounded=0;" parent="1" edge="1">
          <mxGeometry width="50" height="50" relative="1" as="geometry">
            <mxPoint x="291" y="725" as="sourcePoint" />
            <mxPoint x="331" y="725" as="targetPoint" />
          </mxGeometry>
        </mxCell>
        <mxCell id="9st3D3L7WboSmYXunYGg-33" value="" style="endArrow=none;html=1;rounded=0;" parent="1" edge="1">
          <mxGeometry width="50" height="50" relative="1" as="geometry">
            <mxPoint x="465" y="724.77" as="sourcePoint" />
            <mxPoint x="501" y="725" as="targetPoint" />
          </mxGeometry>
        </mxCell>
        <mxCell id="9st3D3L7WboSmYXunYGg-34" value="" style="endArrow=none;html=1;rounded=0;" parent="1" edge="1">
          <mxGeometry width="50" height="50" relative="1" as="geometry">
            <mxPoint x="631" y="724.77" as="sourcePoint" />
            <mxPoint x="671.0000000000001" y="724.77" as="targetPoint" />
          </mxGeometry>
        </mxCell>
        <mxCell id="9st3D3L7WboSmYXunYGg-38" value="" style="endArrow=classic;html=1;rounded=0;" parent="1" edge="1">
          <mxGeometry width="50" height="50" relative="1" as="geometry">
            <mxPoint x="671" y="665" as="sourcePoint" />
            <mxPoint x="211" y="665" as="targetPoint" />
          </mxGeometry>
        </mxCell>
        <mxCell id="9st3D3L7WboSmYXunYGg-40" value="" style="endArrow=none;html=1;rounded=0;" parent="1" edge="1">
          <mxGeometry width="50" height="50" relative="1" as="geometry">
            <mxPoint x="211" y="665" as="sourcePoint" />
            <mxPoint x="211" y="265" as="targetPoint" />
          </mxGeometry>
        </mxCell>
        <mxCell id="9st3D3L7WboSmYXunYGg-41" value="" style="endArrow=classic;html=1;rounded=0;" parent="1" edge="1">
          <mxGeometry width="50" height="50" relative="1" as="geometry">
            <mxPoint x="211" y="265" as="sourcePoint" />
            <mxPoint x="424" y="265" as="targetPoint" />
          </mxGeometry>
        </mxCell>
        <mxCell id="9st3D3L7WboSmYXunYGg-45" value="" style="endArrow=none;html=1;rounded=0;fillColor=#e1d5e7;strokeColor=#4C0099;strokeWidth=2;" parent="1" edge="1">
          <mxGeometry width="50" height="50" relative="1" as="geometry">
            <mxPoint x="801" y="955" as="sourcePoint" />
            <mxPoint x="801" y="935" as="targetPoint" />
          </mxGeometry>
        </mxCell>
        <mxCell id="9st3D3L7WboSmYXunYGg-46" value="" style="endArrow=none;html=1;rounded=0;fillColor=#e1d5e7;strokeColor=#4C0099;strokeWidth=2;" parent="1" edge="1">
          <mxGeometry width="50" height="50" relative="1" as="geometry">
            <mxPoint x="691" y="955" as="sourcePoint" />
            <mxPoint x="691" y="935" as="targetPoint" />
          </mxGeometry>
        </mxCell>
        <mxCell id="9st3D3L7WboSmYXunYGg-47" value="" style="endArrow=none;html=1;rounded=0;fillColor=#e1d5e7;strokeColor=#4C0099;strokeWidth=2;" parent="1" edge="1">
          <mxGeometry width="50" height="50" relative="1" as="geometry">
            <mxPoint x="571" y="955" as="sourcePoint" />
            <mxPoint x="571" y="935" as="targetPoint" />
          </mxGeometry>
        </mxCell>
        <mxCell id="9st3D3L7WboSmYXunYGg-48" value="" style="endArrow=none;html=1;rounded=0;fillColor=#e1d5e7;strokeColor=#4C0099;strokeWidth=2;" parent="1" edge="1">
          <mxGeometry width="50" height="50" relative="1" as="geometry">
            <mxPoint x="351" y="955" as="sourcePoint" />
            <mxPoint x="351" y="935" as="targetPoint" />
          </mxGeometry>
        </mxCell>
        <mxCell id="9st3D3L7WboSmYXunYGg-49" value="" style="endArrow=none;html=1;rounded=0;strokeWidth=2;fillColor=#e1d5e7;strokeColor=#4C0099;" parent="1" edge="1">
          <mxGeometry width="50" height="50" relative="1" as="geometry">
            <mxPoint x="351" y="935" as="sourcePoint" />
            <mxPoint x="801" y="935" as="targetPoint" />
          </mxGeometry>
        </mxCell>
        <mxCell id="9st3D3L7WboSmYXunYGg-50" value="" style="endArrow=none;html=1;rounded=0;strokeWidth=2;entryX=0.5;entryY=1;entryDx=0;entryDy=0;fillColor=#e1d5e7;strokeColor=#4C0099;" parent="1" target="9st3D3L7WboSmYXunYGg-6" edge="1">
          <mxGeometry width="50" height="50" relative="1" as="geometry">
            <mxPoint x="591" y="935" as="sourcePoint" />
            <mxPoint x="651" y="855" as="targetPoint" />
          </mxGeometry>
        </mxCell>
        <mxCell id="9st3D3L7WboSmYXunYGg-51" value="" style="endArrow=none;html=1;rounded=0;strokeWidth=2;fillColor=#dae8fc;strokeColor=#009999;" parent="1" edge="1">
          <mxGeometry width="50" height="50" relative="1" as="geometry">
            <mxPoint x="463.53" y="955" as="sourcePoint" />
            <mxPoint x="463.53" y="915" as="targetPoint" />
          </mxGeometry>
        </mxCell>
        <mxCell id="9st3D3L7WboSmYXunYGg-52" value="" style="endArrow=none;html=1;rounded=0;strokeWidth=2;fillColor=#dae8fc;strokeColor=#009999;" parent="1" edge="1">
          <mxGeometry width="50" height="50" relative="1" as="geometry">
            <mxPoint x="241" y="955" as="sourcePoint" />
            <mxPoint x="241" y="915" as="targetPoint" />
            <Array as="points">
              <mxPoint x="241" y="935" />
            </Array>
          </mxGeometry>
        </mxCell>
        <mxCell id="9st3D3L7WboSmYXunYGg-53" value="" style="endArrow=none;html=1;rounded=0;strokeWidth=2;fillColor=#dae8fc;strokeColor=#009999;" parent="1" edge="1">
          <mxGeometry width="50" height="50" relative="1" as="geometry">
            <mxPoint x="121" y="955" as="sourcePoint" />
            <mxPoint x="121" y="915" as="targetPoint" />
          </mxGeometry>
        </mxCell>
        <mxCell id="9st3D3L7WboSmYXunYGg-54" value="" style="endArrow=none;html=1;rounded=0;strokeWidth=2;fillColor=#dae8fc;strokeColor=#009999;" parent="1" edge="1">
          <mxGeometry width="50" height="50" relative="1" as="geometry">
            <mxPoint x="121" y="915" as="sourcePoint" />
            <mxPoint x="671" y="915" as="targetPoint" />
          </mxGeometry>
        </mxCell>
        <mxCell id="9st3D3L7WboSmYXunYGg-55" value="" style="endArrow=none;html=1;rounded=0;strokeWidth=2;fillColor=#dae8fc;strokeColor=#009999;" parent="1" edge="1">
          <mxGeometry width="50" height="50" relative="1" as="geometry">
            <mxPoint x="671" y="915" as="sourcePoint" />
            <mxPoint x="671" y="725" as="targetPoint" />
            <Array as="points" />
          </mxGeometry>
        </mxCell>
        <mxCell id="9st3D3L7WboSmYXunYGg-56" value="" style="endArrow=none;html=1;rounded=0;strokeWidth=2;fillColor=#d5e8d4;strokeColor=#009900;" parent="1" edge="1">
          <mxGeometry width="50" height="50" relative="1" as="geometry">
            <mxPoint x="771" y="955" as="sourcePoint" />
            <mxPoint x="771" y="895" as="targetPoint" />
          </mxGeometry>
        </mxCell>
        <mxCell id="9st3D3L7WboSmYXunYGg-57" value="" style="endArrow=none;html=1;rounded=0;strokeWidth=2;fillColor=#d5e8d4;strokeColor=#009900;" parent="1" edge="1">
          <mxGeometry width="50" height="50" relative="1" as="geometry">
            <mxPoint x="541" y="955" as="sourcePoint" />
            <mxPoint x="541" y="895" as="targetPoint" />
          </mxGeometry>
        </mxCell>
        <mxCell id="9st3D3L7WboSmYXunYGg-58" value="" style="endArrow=none;html=1;rounded=0;strokeWidth=2;fillColor=#d5e8d4;strokeColor=#009900;" parent="1" edge="1">
          <mxGeometry width="50" height="50" relative="1" as="geometry">
            <mxPoint x="431" y="955" as="sourcePoint" />
            <mxPoint x="431" y="895" as="targetPoint" />
          </mxGeometry>
        </mxCell>
        <mxCell id="9st3D3L7WboSmYXunYGg-59" value="" style="endArrow=none;html=1;rounded=0;strokeWidth=2;fillColor=#d5e8d4;strokeColor=#009900;" parent="1" edge="1">
          <mxGeometry width="50" height="50" relative="1" as="geometry">
            <mxPoint x="211" y="955" as="sourcePoint" />
            <mxPoint x="211" y="895" as="targetPoint" />
          </mxGeometry>
        </mxCell>
        <mxCell id="9st3D3L7WboSmYXunYGg-60" value="" style="endArrow=none;html=1;rounded=0;strokeWidth=2;fillColor=#d5e8d4;strokeColor=#009900;" parent="1" edge="1">
          <mxGeometry width="50" height="50" relative="1" as="geometry">
            <mxPoint x="211" y="895" as="sourcePoint" />
            <mxPoint x="771" y="895" as="targetPoint" />
          </mxGeometry>
        </mxCell>
        <mxCell id="9st3D3L7WboSmYXunYGg-61" value="" style="endArrow=none;html=1;rounded=0;strokeWidth=2;entryX=0.5;entryY=1;entryDx=0;entryDy=0;fillColor=#d5e8d4;strokeColor=#009900;" parent="1" target="9st3D3L7WboSmYXunYGg-7" edge="1">
          <mxGeometry width="50" height="50" relative="1" as="geometry">
            <mxPoint x="425" y="895" as="sourcePoint" />
            <mxPoint x="461" y="825" as="targetPoint" />
          </mxGeometry>
        </mxCell>
        <mxCell id="9st3D3L7WboSmYXunYGg-63" value="" style="endArrow=none;html=1;rounded=0;strokeWidth=2;fillColor=#ffe6cc;strokeColor=#CC00CC;" parent="1" edge="1">
          <mxGeometry width="50" height="50" relative="1" as="geometry">
            <mxPoint x="91" y="955" as="sourcePoint" />
            <mxPoint x="91" y="875" as="targetPoint" />
          </mxGeometry>
        </mxCell>
        <mxCell id="9st3D3L7WboSmYXunYGg-64" value="" style="endArrow=none;html=1;rounded=0;strokeWidth=2;fillColor=#ffe6cc;strokeColor=#CC00CC;" parent="1" edge="1">
          <mxGeometry width="50" height="50" relative="1" as="geometry">
            <mxPoint x="321" y="955" as="sourcePoint" />
            <mxPoint x="321" y="875" as="targetPoint" />
          </mxGeometry>
        </mxCell>
        <mxCell id="9st3D3L7WboSmYXunYGg-65" value="" style="endArrow=none;html=1;rounded=0;strokeWidth=2;fillColor=#ffe6cc;strokeColor=#CC00CC;" parent="1" edge="1">
          <mxGeometry width="50" height="50" relative="1" as="geometry">
            <mxPoint x="661" y="955" as="sourcePoint" />
            <mxPoint x="661" y="875" as="targetPoint" />
          </mxGeometry>
        </mxCell>
        <mxCell id="9st3D3L7WboSmYXunYGg-68" value="" style="endArrow=none;html=1;rounded=0;strokeColor=#CC00CC;strokeWidth=2;" parent="1" edge="1">
          <mxGeometry width="50" height="50" relative="1" as="geometry">
            <mxPoint x="91" y="875" as="sourcePoint" />
            <mxPoint x="661" y="875" as="targetPoint" />
          </mxGeometry>
        </mxCell>
        <mxCell id="9st3D3L7WboSmYXunYGg-69" value="" style="endArrow=none;html=1;rounded=0;strokeColor=#CC00CC;strokeWidth=2;" parent="1" edge="1">
          <mxGeometry width="50" height="50" relative="1" as="geometry">
            <mxPoint x="501" y="875" as="sourcePoint" />
            <mxPoint x="501" y="725" as="targetPoint" />
          </mxGeometry>
        </mxCell>
        <mxCell id="9st3D3L7WboSmYXunYGg-70" value="" style="endArrow=none;html=1;rounded=0;strokeColor=#CC6600;strokeWidth=2;fillColor=#ffe6cc;" parent="1" edge="1">
          <mxGeometry width="50" height="50" relative="1" as="geometry">
            <mxPoint x="60" y="955" as="sourcePoint" />
            <mxPoint x="60" y="855" as="targetPoint" />
          </mxGeometry>
        </mxCell>
        <mxCell id="9st3D3L7WboSmYXunYGg-71" value="" style="endArrow=none;html=1;rounded=0;strokeColor=#CC6600;strokeWidth=2;fillColor=#ffe6cc;" parent="1" edge="1">
          <mxGeometry width="50" height="50" relative="1" as="geometry">
            <mxPoint x="181" y="955" as="sourcePoint" />
            <mxPoint x="181" y="855" as="targetPoint" />
          </mxGeometry>
        </mxCell>
        <mxCell id="9st3D3L7WboSmYXunYGg-72" value="" style="endArrow=none;html=1;rounded=0;strokeColor=#CC6600;strokeWidth=2;fillColor=#ffe6cc;" parent="1" edge="1">
          <mxGeometry width="50" height="50" relative="1" as="geometry">
            <mxPoint x="291" y="955" as="sourcePoint" />
            <mxPoint x="291" y="855" as="targetPoint" />
          </mxGeometry>
        </mxCell>
        <mxCell id="9st3D3L7WboSmYXunYGg-73" value="" style="endArrow=none;html=1;rounded=0;strokeColor=#CC6600;strokeWidth=2;fillColor=#ffe6cc;" parent="1" edge="1">
          <mxGeometry width="50" height="50" relative="1" as="geometry">
            <mxPoint x="741" y="955" as="sourcePoint" />
            <mxPoint x="741" y="855" as="targetPoint" />
          </mxGeometry>
        </mxCell>
        <mxCell id="9st3D3L7WboSmYXunYGg-74" value="" style="endArrow=none;html=1;rounded=0;strokeColor=#CC6600;strokeWidth=2;fillColor=#ffe6cc;" parent="1" edge="1">
          <mxGeometry width="50" height="50" relative="1" as="geometry">
            <mxPoint x="61" y="855" as="sourcePoint" />
            <mxPoint x="741" y="855" as="targetPoint" />
          </mxGeometry>
        </mxCell>
        <mxCell id="9st3D3L7WboSmYXunYGg-75" value="" style="endArrow=none;html=1;rounded=0;strokeColor=#CC6600;strokeWidth=2;fillColor=#ffe6cc;entryX=0.5;entryY=1;entryDx=0;entryDy=0;" parent="1" target="9st3D3L7WboSmYXunYGg-8" edge="1">
          <mxGeometry width="50" height="50" relative="1" as="geometry">
            <mxPoint x="251" y="855" as="sourcePoint" />
            <mxPoint x="461" y="825" as="targetPoint" />
          </mxGeometry>
        </mxCell>
        <mxCell id="9st3D3L7WboSmYXunYGg-76" value="" style="endArrow=none;html=1;rounded=0;strokeColor=#BFBF00;strokeWidth=2;fillColor=#fff2cc;" parent="1" edge="1">
          <mxGeometry width="50" height="50" relative="1" as="geometry">
            <mxPoint x="401" y="955" as="sourcePoint" />
            <mxPoint x="401" y="835" as="targetPoint" />
          </mxGeometry>
        </mxCell>
        <mxCell id="9st3D3L7WboSmYXunYGg-77" value="" style="endArrow=none;html=1;rounded=0;strokeColor=#BFBF00;strokeWidth=2;" parent="1" edge="1">
          <mxGeometry width="50" height="50" relative="1" as="geometry">
            <mxPoint x="513" y="955" as="sourcePoint" />
            <mxPoint x="513" y="835" as="targetPoint" />
          </mxGeometry>
        </mxCell>
        <mxCell id="9st3D3L7WboSmYXunYGg-78" value="" style="endArrow=none;html=1;rounded=0;strokeColor=#BFBF00;strokeWidth=2;" parent="1" edge="1">
          <mxGeometry width="50" height="50" relative="1" as="geometry">
            <mxPoint x="631" y="955" as="sourcePoint" />
            <mxPoint x="631" y="835" as="targetPoint" />
          </mxGeometry>
        </mxCell>
        <mxCell id="9st3D3L7WboSmYXunYGg-79" value="" style="endArrow=none;html=1;rounded=0;strokeColor=#BFBF00;strokeWidth=2;" parent="1" edge="1">
          <mxGeometry width="50" height="50" relative="1" as="geometry">
            <mxPoint x="331" y="835" as="sourcePoint" />
            <mxPoint x="631" y="835" as="targetPoint" />
          </mxGeometry>
        </mxCell>
        <mxCell id="9st3D3L7WboSmYXunYGg-80" value="" style="endArrow=none;html=1;rounded=0;strokeColor=#BFBF00;strokeWidth=2;" parent="1" edge="1">
          <mxGeometry width="50" height="50" relative="1" as="geometry">
            <mxPoint x="331" y="725" as="sourcePoint" />
            <mxPoint x="331" y="835" as="targetPoint" />
          </mxGeometry>
        </mxCell>
        <mxCell id="9st3D3L7WboSmYXunYGg-81" value="&lt;font color=&quot;#cc6600&quot;&gt;1&lt;/font&gt;" style="text;html=1;strokeColor=none;fillColor=none;align=center;verticalAlign=middle;whiteSpace=wrap;rounded=0;" parent="1" vertex="1">
          <mxGeometry x="245" y="765" width="26" height="20" as="geometry" />
        </mxCell>
        <mxCell id="9st3D3L7WboSmYXunYGg-82" value="&lt;font color=&quot;#bfbf00&quot;&gt;0&lt;/font&gt;" style="text;html=1;strokeColor=none;fillColor=none;align=center;verticalAlign=middle;whiteSpace=wrap;rounded=0;fontColor=#CC6600;" parent="1" vertex="1">
          <mxGeometry x="301" y="705" width="24" height="20" as="geometry" />
        </mxCell>
        <mxCell id="9st3D3L7WboSmYXunYGg-83" value="&lt;font color=&quot;#009900&quot;&gt;1&lt;/font&gt;" style="text;html=1;strokeColor=none;fillColor=none;align=center;verticalAlign=middle;whiteSpace=wrap;rounded=0;fontColor=#CC6600;" parent="1" vertex="1">
          <mxGeometry x="425" y="765" width="24" height="20" as="geometry" />
        </mxCell>
        <mxCell id="9st3D3L7WboSmYXunYGg-84" value="&lt;font color=&quot;#cc00cc&quot;&gt;0&lt;/font&gt;" style="text;html=1;strokeColor=none;fillColor=none;align=center;verticalAlign=middle;whiteSpace=wrap;rounded=0;fontColor=#CC6600;" parent="1" vertex="1">
          <mxGeometry x="475" y="705" width="24" height="20" as="geometry" />
        </mxCell>
        <mxCell id="9st3D3L7WboSmYXunYGg-85" value="&lt;font color=&quot;#009999&quot;&gt;0&lt;/font&gt;" style="text;html=1;strokeColor=none;fillColor=none;align=center;verticalAlign=middle;whiteSpace=wrap;rounded=0;fontColor=#CC6600;" parent="1" vertex="1">
          <mxGeometry x="641" y="705" width="24" height="20" as="geometry" />
        </mxCell>
        <mxCell id="9st3D3L7WboSmYXunYGg-86" value="&lt;font color=&quot;#4c0099&quot;&gt;1&lt;/font&gt;" style="text;html=1;strokeColor=none;fillColor=none;align=center;verticalAlign=middle;whiteSpace=wrap;rounded=0;fontColor=#CC6600;" parent="1" vertex="1">
          <mxGeometry x="592" y="765" width="24" height="20" as="geometry" />
        </mxCell>
        <mxCell id="9st3D3L7WboSmYXunYGg-87" value="" style="endArrow=classic;html=1;rounded=0;fontColor=#009999;strokeColor=#BFBF00;strokeWidth=2;" parent="1" edge="1">
          <mxGeometry width="50" height="50" relative="1" as="geometry">
            <mxPoint x="331" y="725" as="sourcePoint" />
            <mxPoint x="331" y="665" as="targetPoint" />
          </mxGeometry>
        </mxCell>
        <mxCell id="9st3D3L7WboSmYXunYGg-88" value="" style="endArrow=classic;html=1;rounded=0;fontColor=#009999;strokeColor=#CC00CC;strokeWidth=2;" parent="1" edge="1">
          <mxGeometry width="50" height="50" relative="1" as="geometry">
            <mxPoint x="501" y="725" as="sourcePoint" />
            <mxPoint x="501" y="665" as="targetPoint" />
            <Array as="points">
              <mxPoint x="501" y="695" />
            </Array>
          </mxGeometry>
        </mxCell>
        <mxCell id="9st3D3L7WboSmYXunYGg-89" value="" style="endArrow=classic;html=1;rounded=0;fontColor=#009999;strokeColor=#009999;strokeWidth=2;" parent="1" edge="1">
          <mxGeometry width="50" height="50" relative="1" as="geometry">
            <mxPoint x="671" y="725" as="sourcePoint" />
            <mxPoint x="671" y="665" as="targetPoint" />
          </mxGeometry>
        </mxCell>
        <mxCell id="9st3D3L7WboSmYXunYGg-90" value="" style="endArrow=classic;html=1;rounded=0;fontColor=#009999;strokeColor=#000000;strokeWidth=1;" parent="1" edge="1">
          <mxGeometry width="50" height="50" relative="1" as="geometry">
            <mxPoint x="425" y="1035" as="sourcePoint" />
            <mxPoint x="425" y="1065" as="targetPoint" />
            <Array as="points" />
          </mxGeometry>
        </mxCell>
        <mxCell id="9st3D3L7WboSmYXunYGg-95" value="" style="endArrow=none;html=1;rounded=0;fontColor=#009999;strokeColor=#000000;strokeWidth=1;" parent="1" edge="1">
          <mxGeometry width="50" height="50" relative="1" as="geometry">
            <mxPoint x="425" y="1035" as="sourcePoint" />
            <mxPoint x="425" y="1015" as="targetPoint" />
            <Array as="points">
              <mxPoint x="425" y="1025" />
            </Array>
          </mxGeometry>
        </mxCell>
        <mxCell id="9st3D3L7WboSmYXunYGg-96" value="" style="endArrow=none;html=1;rounded=0;fontColor=#009999;strokeColor=#000000;strokeWidth=1;" parent="1" edge="1">
          <mxGeometry width="50" height="50" relative="1" as="geometry">
            <mxPoint x="81" y="1035" as="sourcePoint" />
            <mxPoint x="81" y="1015" as="targetPoint" />
            <Array as="points">
              <mxPoint x="81" y="1025" />
            </Array>
          </mxGeometry>
        </mxCell>
        <mxCell id="9st3D3L7WboSmYXunYGg-97" value="" style="endArrow=none;html=1;rounded=0;fontColor=#009999;strokeColor=#000000;strokeWidth=1;" parent="1" edge="1">
          <mxGeometry width="50" height="50" relative="1" as="geometry">
            <mxPoint x="191" y="1035" as="sourcePoint" />
            <mxPoint x="191" y="1015" as="targetPoint" />
            <Array as="points">
              <mxPoint x="191" y="1025" />
            </Array>
          </mxGeometry>
        </mxCell>
        <mxCell id="9st3D3L7WboSmYXunYGg-98" value="" style="endArrow=none;html=1;rounded=0;fontColor=#009999;strokeColor=#000000;strokeWidth=1;" parent="1" edge="1">
          <mxGeometry width="50" height="50" relative="1" as="geometry">
            <mxPoint x="301" y="1035" as="sourcePoint" />
            <mxPoint x="301" y="1015" as="targetPoint" />
            <Array as="points">
              <mxPoint x="301" y="1025" />
            </Array>
          </mxGeometry>
        </mxCell>
        <mxCell id="9st3D3L7WboSmYXunYGg-99" value="" style="endArrow=none;html=1;rounded=0;fontColor=#009999;strokeColor=#000000;strokeWidth=1;" parent="1" edge="1">
          <mxGeometry width="50" height="50" relative="1" as="geometry">
            <mxPoint x="531" y="1035" as="sourcePoint" />
            <mxPoint x="531" y="1015" as="targetPoint" />
            <Array as="points">
              <mxPoint x="531" y="1025" />
            </Array>
          </mxGeometry>
        </mxCell>
        <mxCell id="9st3D3L7WboSmYXunYGg-100" value="" style="endArrow=none;html=1;rounded=0;fontColor=#009999;strokeColor=#000000;strokeWidth=1;" parent="1" edge="1">
          <mxGeometry width="50" height="50" relative="1" as="geometry">
            <mxPoint x="651" y="1035" as="sourcePoint" />
            <mxPoint x="651" y="1015" as="targetPoint" />
            <Array as="points">
              <mxPoint x="651" y="1025" />
            </Array>
          </mxGeometry>
        </mxCell>
        <mxCell id="9st3D3L7WboSmYXunYGg-101" value="" style="endArrow=none;html=1;rounded=0;fontColor=#009999;strokeColor=#000000;strokeWidth=1;" parent="1" edge="1">
          <mxGeometry width="50" height="50" relative="1" as="geometry">
            <mxPoint x="771" y="1035" as="sourcePoint" />
            <mxPoint x="771" y="1015" as="targetPoint" />
            <Array as="points">
              <mxPoint x="771" y="1025" />
            </Array>
          </mxGeometry>
        </mxCell>
        <mxCell id="9st3D3L7WboSmYXunYGg-102" value="" style="endArrow=none;html=1;rounded=0;fontColor=#009999;strokeColor=#000000;strokeWidth=1;" parent="1" edge="1">
          <mxGeometry width="50" height="50" relative="1" as="geometry">
            <mxPoint x="81" y="1035" as="sourcePoint" />
            <mxPoint x="771" y="1035" as="targetPoint" />
          </mxGeometry>
        </mxCell>
        <mxCell id="BhMS0JDoZwQDwW2WqtWu-2" value="0" style="text;html=1;strokeColor=none;fillColor=none;align=center;verticalAlign=middle;whiteSpace=wrap;rounded=0;" vertex="1" parent="1">
          <mxGeometry x="211" y="437.5" width="29" height="15" as="geometry" />
        </mxCell>
        <mxCell id="BhMS0JDoZwQDwW2WqtWu-3" value="0" style="text;html=1;strokeColor=none;fillColor=none;align=center;verticalAlign=middle;whiteSpace=wrap;rounded=0;" vertex="1" parent="1">
          <mxGeometry x="465" y="310" width="29" height="15" as="geometry" />
        </mxCell>
        <mxCell id="BhMS0JDoZwQDwW2WqtWu-4" value="1" style="text;html=1;strokeColor=none;fillColor=none;align=center;verticalAlign=middle;whiteSpace=wrap;rounded=0;" vertex="1" parent="1">
          <mxGeometry x="420" y="380" width="29" height="15" as="geometry" />
        </mxCell>
      </root>
    </mxGraphModel>
  </diagram>
</mxfile>
